<svg width="128" height="128" viewBox="0 0 128 128" xmlns="http://www.w3.org/2000/svg">
  <rect width="128" height="128" rx="14" fill="#1e1e1e"/>
  <g transform="translate(32, 32) scale(2.5)" fill="none" stroke="#ff7b00" stroke-width="3" stroke-linecap="round" stroke-linejoin="round">
    <!-- Rocket body -->
    <path d="M4.5 16.5c-1.5 1.26-2 5-2 5s3.74-.5 5-2c.71-.84.7-2.13-.09-2.91a2.18 2.18 0 0 0-2.91-.09z" />
    <path d="m12 15-3-3a22 22 0 0 1 2-3.95A12.88 12.88 0 0 1 22 2c0 2.72-.78 7.5-6 11a22.35 22.35 0 0 1-4 2z" />
    <!-- Rocket window -->
    <circle cx="16" cy="8" r="2" />
    <!-- Flame trails -->
    <path d="M9 12 6 9" />
    <path d="M12 9 9 6" />
  </g>
</svg>
